<mxfile host="www.draw.io" modified="2019-12-04T08:53:01.791Z" agent="Mozilla/5.0 (Windows NT 6.1; Win64; x64) AppleWebKit/537.36 (KHTML, like Gecko) Chrome/78.0.3904.108 Safari/537.36" etag="eYZJz_pFrZT7DrqzYN_L" version="12.3.6" type="github" pages="1">
  <diagram id="vSTI7dZXTQeVog7tdsL5" name="第 1 页">
    <mxGraphModel dx="2972" dy="717" grid="1" gridSize="10" guides="1" tooltips="1" connect="1" arrows="1" fold="1" page="1" pageScale="1" pageWidth="1400" pageHeight="850" background="none" math="0" shadow="0">
      <root>
        <mxCell id="0"/>
        <mxCell id="1" parent="0"/>
        <mxCell id="sGJo1BylAi6oCNJ4hvH2-21" value="1.通知业务事件成功通知" style="edgeStyle=orthogonalEdgeStyle;orthogonalLoop=1;jettySize=auto;html=1;exitX=1;exitY=0.5;exitDx=0;exitDy=0;entryX=0;entryY=0.5;entryDx=0;entryDy=0;rounded=0;" edge="1" parent="1" source="sGJo1BylAi6oCNJ4hvH2-12" target="sGJo1BylAi6oCNJ4hvH2-17">
          <mxGeometry relative="1" as="geometry"/>
        </mxCell>
        <mxCell id="sGJo1BylAi6oCNJ4hvH2-31" style="edgeStyle=orthogonalEdgeStyle;curved=1;orthogonalLoop=1;jettySize=auto;html=1;exitX=0.5;exitY=1;exitDx=0;exitDy=0;entryX=0.5;entryY=0;entryDx=0;entryDy=0;endArrow=none;endFill=0;strokeColor=#000000;" edge="1" parent="1" source="sGJo1BylAi6oCNJ4hvH2-12" target="sGJo1BylAi6oCNJ4hvH2-29">
          <mxGeometry relative="1" as="geometry"/>
        </mxCell>
        <mxCell id="sGJo1BylAi6oCNJ4hvH2-12" value="业务系统" style="ellipse;whiteSpace=wrap;html=1;" vertex="1" parent="1">
          <mxGeometry x="70" y="40" width="120" height="80" as="geometry"/>
        </mxCell>
        <mxCell id="sGJo1BylAi6oCNJ4hvH2-24" value="3.发送积分入账时间通知" style="edgeStyle=orthogonalEdgeStyle;orthogonalLoop=1;jettySize=auto;html=1;exitX=1;exitY=0;exitDx=0;exitDy=0;rounded=0;entryX=1;entryY=1;entryDx=0;entryDy=0;" edge="1" parent="1" source="sGJo1BylAi6oCNJ4hvH2-13" target="sGJo1BylAi6oCNJ4hvH2-17">
          <mxGeometry x="0.4386" relative="1" as="geometry">
            <mxPoint x="482" y="100" as="targetPoint"/>
            <mxPoint as="offset"/>
          </mxGeometry>
        </mxCell>
        <mxCell id="sGJo1BylAi6oCNJ4hvH2-13" value="任务系统" style="ellipse;whiteSpace=wrap;html=1;" vertex="1" parent="1">
          <mxGeometry x="380" y="210" width="120" height="80" as="geometry"/>
        </mxCell>
        <mxCell id="sGJo1BylAi6oCNJ4hvH2-14" value="积分系统" style="ellipse;whiteSpace=wrap;html=1;" vertex="1" parent="1">
          <mxGeometry x="640" y="40" width="120" height="80" as="geometry"/>
        </mxCell>
        <mxCell id="sGJo1BylAi6oCNJ4hvH2-23" value="2.接收操作事件成功通知" style="edgeStyle=orthogonalEdgeStyle;orthogonalLoop=1;jettySize=auto;html=1;exitX=0;exitY=1;exitDx=0;exitDy=0;entryX=0;entryY=0;entryDx=0;entryDy=0;rounded=0;" edge="1" parent="1" source="sGJo1BylAi6oCNJ4hvH2-17" target="sGJo1BylAi6oCNJ4hvH2-13">
          <mxGeometry x="0.4386" relative="1" as="geometry">
            <mxPoint as="offset"/>
          </mxGeometry>
        </mxCell>
        <mxCell id="sGJo1BylAi6oCNJ4hvH2-25" value="4.积分入账" style="edgeStyle=orthogonalEdgeStyle;orthogonalLoop=1;jettySize=auto;html=1;exitX=1;exitY=0.5;exitDx=0;exitDy=0;entryX=0;entryY=0.5;entryDx=0;entryDy=0;rounded=0;" edge="1" parent="1" source="sGJo1BylAi6oCNJ4hvH2-17" target="sGJo1BylAi6oCNJ4hvH2-14">
          <mxGeometry relative="1" as="geometry"/>
        </mxCell>
        <mxCell id="sGJo1BylAi6oCNJ4hvH2-17" value="消息中心" style="ellipse;whiteSpace=wrap;html=1;" vertex="1" parent="1">
          <mxGeometry x="380" y="40" width="120" height="80" as="geometry"/>
        </mxCell>
        <mxCell id="sGJo1BylAi6oCNJ4hvH2-29" value="执行了某个特定业务,&lt;br&gt;任务系统完成任务&lt;br&gt;积分系统积分入账" style="shape=document;whiteSpace=wrap;html=1;boundedLbl=1;" vertex="1" parent="1">
          <mxGeometry x="70" y="210" width="120" height="80" as="geometry"/>
        </mxCell>
        <mxCell id="sGJo1BylAi6oCNJ4hvH2-41" value="1.初始化订单" style="edgeStyle=orthogonalEdgeStyle;rounded=0;orthogonalLoop=1;jettySize=auto;html=1;exitX=0;exitY=0.5;exitDx=0;exitDy=0;entryX=0.5;entryY=1;entryDx=0;entryDy=0;endArrow=classicThin;endFill=1;strokeColor=#000000;curved=1;" edge="1" parent="1" source="sGJo1BylAi6oCNJ4hvH2-32" target="sGJo1BylAi6oCNJ4hvH2-37">
          <mxGeometry x="-0.2" y="-10" relative="1" as="geometry">
            <mxPoint as="offset"/>
          </mxGeometry>
        </mxCell>
        <mxCell id="sGJo1BylAi6oCNJ4hvH2-43" value="2.锁定积分" style="edgeStyle=orthogonalEdgeStyle;curved=1;rounded=0;orthogonalLoop=1;jettySize=auto;html=1;exitX=1;exitY=0.5;exitDx=0;exitDy=0;entryX=0.5;entryY=1;entryDx=0;entryDy=0;endArrow=classicThin;endFill=1;strokeColor=#000000;" edge="1" parent="1" source="sGJo1BylAi6oCNJ4hvH2-32" target="sGJo1BylAi6oCNJ4hvH2-36">
          <mxGeometry relative="1" as="geometry"/>
        </mxCell>
        <mxCell id="sGJo1BylAi6oCNJ4hvH2-44" value="3.修改/确认订单" style="edgeStyle=orthogonalEdgeStyle;curved=1;rounded=0;orthogonalLoop=1;jettySize=auto;html=1;exitX=0.5;exitY=0;exitDx=0;exitDy=0;entryX=1;entryY=0.5;entryDx=0;entryDy=0;endArrow=classicThin;endFill=1;strokeColor=#000000;" edge="1" parent="1" source="sGJo1BylAi6oCNJ4hvH2-32" target="sGJo1BylAi6oCNJ4hvH2-37">
          <mxGeometry relative="1" as="geometry"/>
        </mxCell>
        <mxCell id="sGJo1BylAi6oCNJ4hvH2-32" value="业务系统" style="ellipse;whiteSpace=wrap;html=1;" vertex="1" parent="1">
          <mxGeometry x="380" y="690" width="120" height="80" as="geometry"/>
        </mxCell>
        <mxCell id="sGJo1BylAi6oCNJ4hvH2-47" value="6.订单成功通知(消耗积分)&lt;br&gt;/订单失败通知(解锁积分)" style="edgeStyle=orthogonalEdgeStyle;curved=1;rounded=0;orthogonalLoop=1;jettySize=auto;html=1;exitX=1;exitY=0.5;exitDx=0;exitDy=0;entryX=0.5;entryY=0;entryDx=0;entryDy=0;endArrow=classicThin;endFill=1;strokeColor=#000000;" edge="1" parent="1" source="sGJo1BylAi6oCNJ4hvH2-33" target="sGJo1BylAi6oCNJ4hvH2-36">
          <mxGeometry relative="1" as="geometry"/>
        </mxCell>
        <mxCell id="sGJo1BylAi6oCNJ4hvH2-50" value="6.订单成功通知&lt;br&gt;/订单失败通知" style="edgeStyle=orthogonalEdgeStyle;curved=1;rounded=0;orthogonalLoop=1;jettySize=auto;html=1;exitX=1;exitY=0.5;exitDx=0;exitDy=0;entryX=1;entryY=0;entryDx=0;entryDy=0;endArrow=classicThin;endFill=1;strokeColor=#000000;" edge="1" parent="1" source="sGJo1BylAi6oCNJ4hvH2-33" target="sGJo1BylAi6oCNJ4hvH2-32">
          <mxGeometry relative="1" as="geometry"/>
        </mxCell>
        <mxCell id="sGJo1BylAi6oCNJ4hvH2-33" value="消息中心" style="ellipse;whiteSpace=wrap;html=1;" vertex="1" parent="1">
          <mxGeometry x="380" y="390" width="120" height="80" as="geometry"/>
        </mxCell>
        <mxCell id="sGJo1BylAi6oCNJ4hvH2-36" value="积分系统" style="ellipse;whiteSpace=wrap;html=1;" vertex="1" parent="1">
          <mxGeometry x="640" y="540" width="120" height="80" as="geometry"/>
        </mxCell>
        <mxCell id="sGJo1BylAi6oCNJ4hvH2-45" value="5.订单成功/订单关闭" style="edgeStyle=orthogonalEdgeStyle;curved=1;rounded=0;orthogonalLoop=1;jettySize=auto;html=1;exitX=0.5;exitY=0;exitDx=0;exitDy=0;entryX=0;entryY=0.5;entryDx=0;entryDy=0;endArrow=classicThin;endFill=1;strokeColor=#000000;" edge="1" parent="1" source="sGJo1BylAi6oCNJ4hvH2-37" target="sGJo1BylAi6oCNJ4hvH2-33">
          <mxGeometry relative="1" as="geometry"/>
        </mxCell>
        <mxCell id="sGJo1BylAi6oCNJ4hvH2-37" value="订单系统" style="ellipse;whiteSpace=wrap;html=1;" vertex="1" parent="1">
          <mxGeometry x="80" y="540" width="120" height="80" as="geometry"/>
        </mxCell>
        <mxCell id="sGJo1BylAi6oCNJ4hvH2-53" value="4.支付成功通知" style="edgeStyle=orthogonalEdgeStyle;curved=1;rounded=0;orthogonalLoop=1;jettySize=auto;html=1;exitX=1;exitY=0.5;exitDx=0;exitDy=0;entryX=0;entryY=0.5;entryDx=0;entryDy=0;endArrow=classicThin;endFill=1;strokeColor=#000000;" edge="1" parent="1" source="sGJo1BylAi6oCNJ4hvH2-55" target="sGJo1BylAi6oCNJ4hvH2-37">
          <mxGeometry x="0.0503" relative="1" as="geometry">
            <mxPoint x="-119.57142857142844" y="780.0000000000002" as="sourcePoint"/>
            <mxPoint as="offset"/>
          </mxGeometry>
        </mxCell>
        <mxCell id="sGJo1BylAi6oCNJ4hvH2-55" value="支付成功回调" style="rounded=0;whiteSpace=wrap;html=1;" vertex="1" parent="1">
          <mxGeometry x="-170" y="460" width="120" height="60" as="geometry"/>
        </mxCell>
        <mxCell id="sGJo1BylAi6oCNJ4hvH2-57" style="edgeStyle=orthogonalEdgeStyle;curved=1;rounded=0;orthogonalLoop=1;jettySize=auto;html=1;exitX=0.5;exitY=0;exitDx=0;exitDy=0;entryX=0.5;entryY=1;entryDx=0;entryDy=0;endArrow=classicThin;endFill=1;strokeColor=#000000;" edge="1" parent="1" source="sGJo1BylAi6oCNJ4hvH2-56" target="sGJo1BylAi6oCNJ4hvH2-32">
          <mxGeometry relative="1" as="geometry"/>
        </mxCell>
        <mxCell id="sGJo1BylAi6oCNJ4hvH2-56" value="业务进行了了含积分的支付方式的订单支付过程" style="shape=document;whiteSpace=wrap;html=1;boundedLbl=1;" vertex="1" parent="1">
          <mxGeometry x="380" y="850" width="120" height="80" as="geometry"/>
        </mxCell>
      </root>
    </mxGraphModel>
  </diagram>
</mxfile>
